<svg width="100" height="100" viewBox="0 0 100 100" fill="none" xmlns="http://www.w3.org/2000/svg">
<rect width="100" height="100" rx="20" fill="black"/>
<path d="M84.196 37.6717V63.1047H75.5704V59.4829H79.4141V41.2934H75.5704V37.6717H84.196Z" fill="white"/>
<path d="M68.1125 43.0287V46.6605H58.1452V43.0287H68.1125ZM60.2234 58.5245V42.2418C60.2234 41.0446 60.4487 40.0526 60.8993 39.2657C61.3499 38.472 61.9754 37.8802 62.7758 37.4901C63.5761 37.0933 64.5009 36.8949 65.5501 36.8949C66.2361 36.8949 66.8818 36.9487 67.4871 37.0563C68.0991 37.1572 68.5531 37.248 68.849 37.3287L68.0621 40.9403C67.8805 40.8798 67.6586 40.8294 67.3963 40.789C67.1407 40.7487 66.8986 40.7285 66.6699 40.7285C66.0915 40.7285 65.6947 40.8563 65.4795 41.1118C65.2642 41.3674 65.1566 41.7172 65.1566 42.161V58.5245H60.2234Z" fill="white"/>
<path d="M53.4237 58.8173C52.6974 58.8173 52.0753 58.5617 51.5574 58.0506C51.0462 57.5394 50.794 56.9207 50.8007 56.1943C50.794 55.4814 51.0462 54.8727 51.5574 54.3683C52.0753 53.8571 52.6974 53.6016 53.4237 53.6016C54.1098 53.6016 54.7151 53.8571 55.2397 54.3683C55.771 54.8727 56.04 55.4814 56.0467 56.1943C56.04 56.6785 55.9122 57.1191 55.6634 57.5159C55.4213 57.9127 55.1018 58.2288 54.705 58.4642C54.3149 58.6996 53.8878 58.8173 53.4237 58.8173ZM53.4237 48.1841C52.6974 48.1841 52.0753 47.9318 51.5574 47.4274C51.0462 46.9163 50.794 46.2942 50.8007 45.5611C50.794 44.8481 51.0462 44.2395 51.5574 43.7351C52.0753 43.2239 52.6974 42.9683 53.4237 42.9683C54.1098 42.9683 54.7151 43.2239 55.2397 43.7351C55.771 44.2395 56.04 44.8481 56.0467 45.5611C56.04 46.0453 55.9122 46.4858 55.6634 46.8826C55.4213 47.2795 55.1018 47.5956 54.705 47.831C54.3149 48.0664 53.8878 48.1841 53.4237 48.1841Z" fill="white"/>
<path d="M37.5774 49.6871V58.5245H32.6441V43.0287H37.3352V45.8736H37.5067C37.8497 44.9253 38.4349 44.1821 39.2621 43.6441C40.0894 43.0993 41.0747 42.8269 42.218 42.8269C43.3076 42.8269 44.2525 43.0724 45.0529 43.5634C45.86 44.0476 46.4855 44.7269 46.9294 45.6012C47.38 46.4688 47.6019 47.4844 47.5952 48.648V58.5245H42.6619V49.6164C42.6687 48.7556 42.4501 48.083 42.0062 47.5988C41.569 47.1145 40.9604 46.8724 40.1802 46.8724C39.6623 46.8724 39.205 46.9867 38.8081 47.2154C38.4181 47.4373 38.1154 47.7568 37.9002 48.1738C37.6917 48.5908 37.5841 49.0952 37.5774 49.6871Z" fill="white"/>
<path d="M15.804 63.1047V37.6717H24.4296V41.2934H20.5859V59.4829H24.4296V63.1047H15.804Z" fill="white"/>
</svg>
