<svg xmlns="http://www.w3.org/2000/svg" style="display: none;">

    <!--    base icons-->

    <symbol viewBox="0 0 24 24" id="arrow-back">
        <g stroke-linecap="round" stroke-linejoin="round" stroke-width="2">
            <path d="m9 10l-5 5l5 5"/>
            <path d="M20 4v7a4 4 0 0 1-4 4H4"/>
        </g>
    </symbol>

    <symbol viewBox="0 0 24 24" id="edit">
        <path stroke-linecap="round" stroke-linejoin="round" stroke-width="2"
              d="M17 3a2.828 2.828 0 1 1 4 4L7.5 20.5L2 22l1.5-5.5z"/>
    </symbol>

    <symbol viewBox="0 0 24 24" id="web">
        <g stroke-linecap="round" stroke-linejoin="round" stroke-width="2">
            <circle cx="12" cy="12" r="10"/>
            <path d="M2 12h20M12 2a15.3 15.3 0 0 1 4 10a15.3 15.3 0 0 1-4 10a15.3 15.3 0 0 1-4-10a15.3 15.3 0 0 1 4-10"/>
        </g>
    </symbol>

    <symbol viewBox="0 0 24 24" id="image">
        <g stroke-linecap="round" stroke-linejoin="round" stroke-width="2">
            <rect width="18" height="18" x="3" y="3" rx="2" ry="2"/>
            <circle cx="8.5" cy="8.5" r="1.5"/>
            <path d="m21 15l-5-5L5 21"/>
        </g>
    </symbol>

    <symbol viewBox="0 0 24 24" id="key">
        <path stroke-linecap="round" stroke-linejoin="round" stroke-width="2"
              d="m21 2l-2 2m-7.61 7.61a5.5 5.5 0 1 1-7.778 7.778a5.5 5.5 0 0 1 7.777-7.777zm0 0L15.5 7.5m0 0l3 3L22 7l-3-3m-3.5 3.5L19 4"/>
    </symbol>

    <symbol viewBox="0 0 24 24" id="info">
        <g stroke-linecap="round" stroke-linejoin="round" stroke-width="2">
            <circle cx="12" cy="12" r="10"/>
            <path d="M12 16v-4m0-4h.01"/>
        </g>
    </symbol>

    <symbol viewBox="0 0 24 24" id="message">
        <path stroke-linecap="round" stroke-linejoin="round" stroke-width="2"
              d="M21 11.5a8.38 8.38 0 0 1-.9 3.8a8.5 8.5 0 0 1-7.6 4.7a8.38 8.38 0 0 1-3.8-.9L3 21l1.9-5.7a8.38 8.38 0 0 1-.9-3.8a8.5 8.5 0 0 1 4.7-7.6a8.38 8.38 0 0 1 3.8-.9h.5a8.48 8.48 0 0 1 8 8z"/>
    </symbol>

    <symbol viewBox="0 0 24 24" id="headphones">
        <g stroke-linecap="round" stroke-linejoin="round" stroke-width="2">
            <path d="M3 18v-6a9 9 0 0 1 18 0v6"/>
            <path d="M21 19a2 2 0 0 1-2 2h-1a2 2 0 0 1-2-2v-3a2 2 0 0 1 2-2h3zM3 19a2 2 0 0 0 2 2h1a2 2 0 0 0 2-2v-3a2 2 0 0 0-2-2H3z"/>
        </g>
    </symbol>

    <symbol viewBox="0 0 24 24" id="filter">
        <path stroke-linecap="round" stroke-linejoin="round" stroke-width="2"
              d="M22 3H2l8 9.46V19l4 2v-8.54z"/>
    </symbol>

    <symbol viewBox="0 0 24 24" id="paperclip">
        <path stroke-linecap="round" stroke-linejoin="round" stroke-width="2"
              d="m21.44 11.05l-9.19 9.19a6 6 0 0 1-8.49-8.49l9.19-9.19a4 4 0 0 1 5.66 5.66l-9.2 9.19a2 2 0 0 1-2.83-2.83l8.49-8.48"/>
    </symbol>

    <symbol viewBox="0 0 24 24" id="plus">
        <path stroke-linecap="round" stroke-linejoin="round" stroke-width="2"
              d="M12 5v14m-7-7h14"/>
    </symbol>

    <symbol viewBox="0 0 24 24" id="minus">
        <path stroke-linecap="round" stroke-linejoin="round" stroke-width="2"
              d="M5 12h14"/>
    </symbol>

    <symbol viewBox="0 0 24 24" id="send">
        <path stroke-linecap="round" stroke-linejoin="round" stroke-width="2"
              d="M22 2L11 13M22 2l-7 20l-4-9l-9-4z"/>
    </symbol>

    <symbol viewBox="0 0 24 24" id="save">
        <g stroke-linecap="round" stroke-linejoin="round" stroke-width="2">
            <path d="M19 21H5a2 2 0 0 1-2-2V5a2 2 0 0 1 2-2h11l5 5v11a2 2 0 0 1-2 2"/>
            <path d="M17 21v-8H7v8M7 3v5h8"/>
        </g>
    </symbol>

    <symbol viewBox="0 0 24 24" id="trash">
        <path stroke-linecap="round" stroke-linejoin="round" stroke-width="2"
              d="M3 6h18m-2 0v14a2 2 0 0 1-2 2H7a2 2 0 0 1-2-2V6m3 0V4a2 2 0 0 1 2-2h4a2 2 0 0 1 2 2v2m-6 5v6m4-6v6"/>
    </symbol>

    <symbol viewBox="0 0 24 24" id="user">
        <g stroke-linecap="round" stroke-linejoin="round" stroke-width="2">
            <path d="M20 21v-2a4 4 0 0 0-4-4H8a4 4 0 0 0-4 4v2"/>
            <circle cx="12" cy="7" r="4"/>
        </g>
    </symbol>

    <symbol viewBox="0 0 24 24" id="constants">
        <g stroke-linecap="round" stroke-linejoin="round" stroke-width="2">
            <path d="M17 21v-2a4 4 0 0 0-4-4H5a4 4 0 0 0-4 4v2"/>
            <circle cx="9" cy="7" r="4"/>
            <path d="M23 21v-2a4 4 0 0 0-3-3.87m-4-12a4 4 0 0 1 0 7.75"/>
        </g>
    </symbol>

    <symbol viewBox="0 0 24 24" id="eye">
        <g stroke-linecap="round" stroke-linejoin="round" stroke-width="2">
            <path d="M1 12s4-8 11-8s11 8 11 8s-4 8-11 8s-11-8-11-8"/>
            <circle cx="12" cy="12" r="3"/>
        </g>
    </symbol>

    <symbol viewBox="0 0 24 24" id="eye-off">
        <path stroke-linecap="round" stroke-linejoin="round" stroke-width="2"
              d="M17.94 17.94A10.07 10.07 0 0 1 12 20c-7 0-11-8-11-8a18.45 18.45 0 0 1 5.06-5.94M9.9 4.24A9.12 9.12 0 0 1 12 4c7 0 11 8 11 8a18.5 18.5 0 0 1-2.16 3.19m-6.72-1.07a3 3 0 1 1-4.24-4.24M1 1l22 22"/>
    </symbol>

    <symbol viewBox="0 0 24 24" id="menu">
        <path stroke-linecap="round" stroke-linejoin="round" stroke-width="2"
              d="M3 12h18M3 6h18M3 18h18"/>
    </symbol>

    <!--    social networks-->

    <symbol viewBox="0 0 24 24" id="tg">
        <path d="M23.0732 12.2119C23.0732 18.5628 17.924 23.7119 11.5732 23.7119C5.22228 23.7119 0.0731506 18.5628 0.0731506 12.2119C0.0731506 5.86104 5.22228 0.711914 11.5732 0.711914C17.924 0.711914 23.0732 5.86104 23.0732 12.2119ZM11.9852 9.20179C10.8669 9.66658 8.63107 10.6297 5.27882 12.0902C4.73448 12.3068 4.4489 12.5186 4.42303 12.7256C4.37894 13.0763 4.81786 13.2143 5.41394 13.4012C5.4954 13.4271 5.57973 13.453 5.66598 13.4817C6.25344 13.6724 7.04311 13.8957 7.45328 13.9043C7.82607 13.912 8.24198 13.7587 8.70103 13.4443C11.8329 11.3293 13.4496 10.2607 13.5512 10.2377C13.623 10.2215 13.7227 10.2004 13.7898 10.2607C13.8569 10.3202 13.8502 10.4332 13.8434 10.4639C13.7994 10.6489 12.0801 12.2483 11.1889 13.0763C10.9109 13.3341 10.7145 13.5172 10.6742 13.5593C10.5842 13.6523 10.4921 13.7414 10.404 13.8267C9.85773 14.3519 9.44948 14.7467 10.427 15.3907C10.8966 15.7002 11.2722 15.9561 11.6469 16.211C12.0562 16.4899 12.4644 16.7678 12.9934 17.1147C13.1276 17.2029 13.256 17.294 13.3815 17.3831C13.8578 17.7233 14.2862 18.028 14.8152 17.9801C15.1219 17.9514 15.44 17.6629 15.601 16.8014C15.9815 14.764 16.7309 10.3518 16.9044 8.53287C16.9149 8.38185 16.9085 8.23012 16.8852 8.08054C16.8712 7.95972 16.8124 7.84856 16.7204 7.76908C16.5833 7.65696 16.3706 7.633 16.2747 7.63491C15.8425 7.64258 15.1794 7.87354 11.9852 9.20179Z"/>
    </symbol>

    <symbol viewBox="0 0 24 24" id="x">
        <path d="M3.95832 0.210938C2.14604 0.210938 0.672607 1.68438 0.672607 3.49665V19.9252C0.672607 21.7375 2.14604 23.2109 3.95832 23.2109H20.3869C22.1992 23.2109 23.6726 21.7375 23.6726 19.9252V3.49665C23.6726 1.68438 22.1992 0.210938 20.3869 0.210938H3.95832ZM19.2112 4.52344L13.8822 10.6123L20.1507 18.8984H15.2427L11.4025 13.8723L7.00274 18.8984H4.56413L10.2628 12.3835L4.25096 4.52344H9.28221L12.7579 9.1183L16.7726 4.52344H19.2112ZM17.2706 17.4404L8.54805 5.90446H7.09515L15.9152 17.4404H17.2655H17.2706Z"/>
    </symbol>

    <!--    not logos-->

    <symbol viewBox="0 0 30 30" id="nfa-logo">
        <path d="M15 0C23.2843 0 30 6.71573 30 15C30 23.2843 23.2843 30 15 30C6.71573 30 0 23.2843 0 15C0 6.71573 6.71573 0 15 0ZM9 9V20.9062H12.7119V19.4053H10.9385V10.4961H12.7119V9H9ZM17.2695 9V10.4961H19.043V19.4053H17.2695V20.9062H20.9814V9H17.2695ZM14.9893 16.6865C14.6789 16.6866 14.4121 16.7961 14.1895 17.0156C13.9701 17.235 13.8604 17.4985 13.8604 17.8057C13.8604 18.116 13.9701 18.3829 14.1895 18.6055C14.4121 18.8249 14.6789 18.9345 14.9893 18.9346C15.193 18.9346 15.3795 18.8845 15.5488 18.7842C15.7182 18.6807 15.8555 18.5443 15.959 18.375C16.0655 18.2026 16.1182 18.0125 16.1182 17.8057C16.1181 17.4985 16.005 17.2351 15.7793 17.0156C15.5536 16.7963 15.2902 16.6865 14.9893 16.6865ZM14.9893 11.6299C14.6789 11.6299 14.4121 11.7395 14.1895 11.959C13.9701 12.1753 13.8604 12.437 13.8604 12.7441C13.8604 13.0576 13.9701 13.3245 14.1895 13.5439C14.4121 13.7634 14.6789 13.873 14.9893 13.873C15.193 13.873 15.3795 13.8229 15.5488 13.7227C15.7182 13.6223 15.8555 13.4877 15.959 13.3184C16.0655 13.1459 16.1182 12.9542 16.1182 12.7441C16.1181 12.4369 16.005 12.1753 15.7793 11.959C15.5535 11.7396 15.2902 11.6299 14.9893 11.6299Z"/>
    </symbol>

    <!--    achievements-->

    <symbol viewBox="0 0 24 24" id="check-mark">
        <path fill="currentColor" fill-rule="evenodd"
              d="M15.418 5.643a1.25 1.25 0 0 0-1.34-.555l-1.798.413a1.25 1.25 0 0 1-.56 0l-1.798-.413a1.25 1.25 0 0 0-1.34.555l-.98 1.564c-.1.16-.235.295-.395.396l-1.564.98a1.25 1.25 0 0 0-.555 1.338l.413 1.8a1.25 1.25 0 0 1 0 .559l-.413 1.799a1.25 1.25 0 0 0 .555 1.339l1.564.98c.16.1.295.235.396.395l.98 1.564c.282.451.82.674 1.339.555l1.798-.413a1.25 1.25 0 0 1 .56 0l1.799.413a1.25 1.25 0 0 0 1.339-.555l.98-1.564c.1-.16.235-.295.395-.395l1.565-.98a1.25 1.25 0 0 0 .554-1.34L18.5 12.28a1.25 1.25 0 0 1 0-.56l.413-1.799a1.25 1.25 0 0 0-.554-1.339l-1.565-.98a1.25 1.25 0 0 1-.395-.395zm-.503 4.127a.5.5 0 0 0-.86-.509l-2.615 4.426l-1.579-1.512a.5.5 0 1 0-.691.722l2.034 1.949a.5.5 0 0 0 .776-.107z"
              clip-rule="evenodd"/>
    </symbol>

</svg>
